<svg width="688" height="127" viewBox="0 0 688 127" fill="none" xmlns="http://www.w3.org/2000/svg">
<path d="M0.659912 109.39C0.659912 99.87 8.4299 92.15 18.0199 92.15H110.6C120.19 92.15 127.96 99.87 127.96 109.39C127.96 118.91 120.19 126.63 110.6 126.63H18.0199C8.4299 126.63 0.659912 118.91 0.659912 109.39Z" fill="#66CCFF"/>
<path fill-rule="evenodd" clip-rule="evenodd" d="M5.75004 5.24001C12.53 -1.49 23.52 -1.49 30.3 5.24001L76.59 51.22C83.37 57.95 83.37 68.87 76.59 75.6L30.3 121.58C23.52 128.31 12.53 128.31 5.75004 121.58C-1.02996 114.85 -1.02996 103.93 5.75004 97.2L37.72 65.45C38.85 64.33 38.85 62.51 37.72 61.39L5.75004 29.64C-1.02996 22.91 -1.02996 11.99 5.75004 5.25999V5.24001Z" fill="#0066FF"/>
<path d="M59.93 92.15L30.3 121.58C23.52 128.31 12.53 128.31 5.75004 121.58C-1.02996 114.85 -1.02996 103.93 5.75004 97.2L10.83 92.15H59.93Z" fill="#CC66FF"/>
<path d="M110.61 126.63C120.2 126.63 127.97 118.91 127.97 109.39C127.97 99.87 120.2 92.15 110.61 92.15C101.02 92.15 93.25 99.87 93.25 109.39C93.25 118.91 101.02 126.63 110.61 126.63Z" fill="#0066FF"/>
<path fill-rule="evenodd" clip-rule="evenodd" d="M660.51 110.24H647.99L620.68 42.99H634.34L654.25 94.98L674.16 42.99H687.82L660.51 110.24ZM564.93 68.99H603.62C603.05 59.95 595.65 52.6 584.28 52.6C574.61 52.6 567.21 58.82 564.94 68.99H564.93ZM585.41 112.5C565.5 112.5 551.27 97.24 551.27 76.9C551.27 56.56 565.49 41.3 584.84 41.3C604.19 41.3 617.84 54.86 617.84 78.03V79.16H564.93C565.5 92.16 575.17 101.2 586.55 101.2C594.52 101.2 601.34 97.24 605.33 89.33L616.71 94.98C610.45 105.72 599.07 112.5 585.42 112.5H585.41ZM505.76 112.5C488.12 112.5 473.33 96.68 473.33 76.9C473.33 57.12 488.12 41.3 505.76 41.3C515.43 41.3 524.54 45.82 529.09 52.6H529.66L529.09 43.56V12.48H541.61V110.24H529.66V101.2H529.09C523.97 107.98 515.43 112.5 505.76 112.5ZM507.46 101.2C519.98 101.2 529.08 91.59 529.08 76.9C529.08 62.21 519.98 52.6 507.46 52.6C494.94 52.6 485.84 62.77 485.84 76.9C485.84 91.03 495.51 101.2 507.46 101.2ZM468.77 101.77C468.77 106.86 464.79 110.81 459.1 110.81C453.98 110.81 449.43 106.29 449.43 101.77C449.43 96.68 453.98 92.73 459.1 92.73C464.79 92.73 468.77 96.69 468.77 101.77ZM409.03 101.2C420.98 101.2 430.65 91.03 430.65 76.9C430.65 62.77 420.98 52.6 409.03 52.6C397.08 52.6 387.41 62.77 387.41 76.9C387.41 91.03 396.51 101.2 409.03 101.2ZM411.31 112.5C401.64 112.5 392.53 107.98 387.98 101.2H387.41V110.24H375.46V12.48H387.98V43.56L387.41 52.6H387.98C392.53 45.82 401.07 41.3 411.31 41.3C428.95 41.3 443.74 57.12 443.74 76.9C443.17 96.68 428.95 112.5 411.31 112.5ZM312.31 68.99H351C350.43 59.95 343.03 52.6 331.66 52.6C321.99 52.6 314.59 58.82 312.32 68.99H312.31ZM332.79 112.5C312.88 112.5 298.65 97.24 298.65 76.9C298.65 56.56 312.87 41.3 332.22 41.3C351.57 41.3 365.22 54.86 365.22 78.03V79.16H312.31C312.88 92.16 322.55 101.2 333.93 101.2C341.9 101.2 348.15 97.24 352.71 89.33L364.09 94.98C357.83 105.72 346.45 112.5 332.8 112.5H332.79ZM296.95 43.56L275.33 110.81H262.24L245.17 59.39L228.67 110.81H215.58L193.39 43.56H206.48L221.27 94.42L237.77 43.56H250.86L267.36 94.42L282.15 43.56H296.94H296.95Z" fill="white"/>
</svg>
